<?xml version="1.0" standalone="no"?>
<svg viewBox="40 55 100 100" xmlns="http://www.w3.org/2000/svg">
  <path fill="#22C38D" d="M46.7,-73.8C60.1,-64.1,70.2,-50.4,77.5,-35.2C84.9,-19.9,89.5,-3.2,88.3,13.5C87.2,30.2,80.3,46.9,68.7,58.7C57.2,70.5,41,77.4,24.4,81.7C7.8,86,-9.2,87.7,-25.8,84.5C-42.4,81.2,-58.6,73,-70.2,60.4C-81.7,47.8,-88.6,30.8,-91.2,13.1C-93.8,-4.6,-92,-22.9,-84,-37.6C-76.1,-52.3,-62,-63.3,-46.9,-72.4C-31.9,-81.4,-15.9,-88.3,0.4,-88.9C16.7,-89.5,33.3,-83.6,46.7,-73.8Z" transform="translate(100 100)" />
</svg>
