<svg width="430" height="456" viewBox="0 0 430 456" fill="none" xmlns="http://www.w3.org/2000/svg">
<path d="M96.8532 333.573C81.0292 327.946 67.4584 317.695 59.1938 298.571C44.72 264.982 67.08 227.9 91.5298 216.007C115.98 204.115 150.251 202.008 151.575 183.111C152.899 164.215 123.84 134.128 147.619 110.352C167.657 90.2881 197.138 83.3204 223.789 81.013C268.157 77.1644 308.362 86.1567 335.787 126.038C347.896 143.649 360.065 168.209 356.788 190.79C351.508 227.179 328.408 241.862 335.013 262.838C341.618 283.814 365.362 276.838 375.261 303.423C380.911 318.589 377.6 333.591 363.427 341.234C347.311 349.925 328.056 345.639 310.821 345.402C283.413 345.028 255.996 344.271 228.588 343.45C205.626 342.775 182.664 342.009 159.702 341.152C138.735 340.441 116.96 340.723 96.8532 333.573Z" fill="#FD8145"/>
<path opacity="0.7" d="M96.8532 333.573C81.0292 327.946 67.4584 317.695 59.1938 298.571C44.72 264.982 67.08 227.9 91.5298 216.007C115.98 204.115 150.251 202.008 151.575 183.111C152.899 164.215 123.84 134.128 147.619 110.352C167.657 90.2881 197.138 83.3204 223.789 81.013C268.157 77.1644 308.362 86.1567 335.787 126.038C347.896 143.649 360.065 168.209 356.788 190.79C351.508 227.179 328.408 241.862 335.013 262.838C341.618 283.814 365.362 276.838 375.261 303.423C380.911 318.589 377.6 333.591 363.427 341.234C347.311 349.925 328.056 345.639 310.821 345.402C283.413 345.028 255.996 344.271 228.588 343.45C205.626 342.775 182.664 342.009 159.702 341.152C138.735 340.441 116.96 340.723 96.8532 333.573Z" fill="white"/>
<path d="M383.483 192.624C378.624 186.431 371.735 198.451 364.124 212.998C359.953 220.969 350.717 227.763 346.683 237.777C342.762 247.526 344.181 260.121 341.042 269.013C336.406 282.127 332.597 282.018 328.916 288.812C327.29 284.891 325.863 280.203 326.121 275.379C326.456 269.25 335.882 263.377 336.097 255.597C336.26 248.976 327.247 240.768 327.29 233.472C327.29 226.532 336.441 220.221 336.32 213.107C336.2 205.994 326.86 198.278 326.516 191.374C326.164 183.941 334.807 176.901 334.179 170.271C333.422 162.291 323.429 155.77 322.191 149.787C319.903 138.761 320.574 126.413 316.248 126.622C312.172 126.823 314.528 140.22 312.662 151.766C311.638 158.15 301.826 163.877 301.31 172.386C300.88 179.518 309.755 188.492 309.609 196.491C309.471 203.96 300.295 210.754 300.347 218.497C300.398 226.24 309.678 234.649 309.858 242.209C310.056 250.198 301.155 257.403 301.43 264.653C301.576 268.356 303.451 272.004 305.55 275.497C302.927 271.758 299.53 267.909 298.222 263.486C296.313 257.157 299.28 249.077 296.872 242.911C294.292 236.226 286.595 232.268 283.473 227.033C279.302 220.057 277.591 210.754 272.612 209.058C264.94 206.431 266.101 216.646 269.077 229.377C270.651 236.126 268.122 245.593 271.425 254.22C274.254 261.626 282.536 267.417 286.045 275.041C289.554 282.665 288.565 292.734 292.237 299.61C295.298 305.329 300.321 309.25 304.423 312.798L304.664 313.5C304.797 313.65 304.961 313.767 305.142 313.841C305.324 313.915 305.519 313.945 305.713 313.929C307.096 315.115 308.356 316.454 309.471 317.923C311.552 320.842 309.23 326.542 310.563 327.955C314.227 331.868 314.416 328.667 314.193 325.283C314.064 323.322 318.338 320.167 318.08 317.239C318.269 316.906 318.548 316.64 318.88 316.473C320.324 316.127 326.929 322.055 327.824 320.121C328.486 318.717 320.479 312.825 320.944 311.001C321.27 309.715 326.886 310.153 329.544 309.588C329.622 309.646 329.692 309.716 329.75 309.797C330.533 310.874 330.928 315.653 333.19 314.768C336.2 313.582 340.259 298.762 348.722 284.572C353.821 276.017 364.064 269.314 369 259.136C373.937 248.958 373.438 235.625 376.62 226.076C381.531 211.311 387.929 198.315 383.483 192.624ZM311.578 288.019C311.939 295.251 309.626 298.051 307.416 300.577C306.057 292.369 311.363 292.369 308.732 281.608C308.482 280.653 308.124 279.734 307.665 278.872C309.678 282.137 311.441 285.219 311.578 288.019ZM314.958 312.442C315.09 312.66 315.178 312.905 315.218 313.16C315.258 313.416 315.249 313.677 315.19 313.929C314.33 313.409 313.47 312.907 312.679 312.388C313.797 312.15 314.666 312.077 314.958 312.442Z" fill="#FD8145"/>
<path opacity="0.5" d="M383.483 192.624C378.624 186.431 371.735 198.451 364.124 212.998C359.953 220.969 350.717 227.763 346.683 237.777C342.762 247.526 344.181 260.121 341.042 269.013C336.406 282.127 332.597 282.018 328.916 288.812C327.29 284.891 325.863 280.203 326.121 275.379C326.456 269.25 335.882 263.377 336.097 255.597C336.26 248.976 327.247 240.768 327.29 233.472C327.29 226.532 336.441 220.221 336.32 213.107C336.2 205.994 326.86 198.278 326.516 191.374C326.164 183.941 334.807 176.901 334.179 170.271C333.422 162.291 323.429 155.77 322.191 149.787C319.903 138.761 320.574 126.413 316.248 126.622C312.172 126.823 314.528 140.22 312.662 151.766C311.638 158.15 301.826 163.877 301.31 172.386C300.88 179.518 309.755 188.492 309.609 196.491C309.471 203.96 300.295 210.754 300.347 218.497C300.398 226.24 309.678 234.649 309.858 242.209C310.056 250.198 301.155 257.403 301.43 264.653C301.576 268.356 303.451 272.004 305.55 275.497C302.927 271.758 299.53 267.909 298.222 263.486C296.313 257.157 299.28 249.077 296.872 242.911C294.292 236.226 286.595 232.268 283.473 227.033C279.302 220.057 277.591 210.754 272.612 209.058C264.94 206.431 266.101 216.646 269.077 229.377C270.651 236.126 268.122 245.593 271.425 254.22C274.254 261.626 282.536 267.417 286.045 275.041C289.554 282.665 288.565 292.734 292.237 299.61C295.298 305.329 300.321 309.25 304.423 312.798L304.664 313.5C304.797 313.65 304.961 313.767 305.142 313.841C305.324 313.915 305.519 313.945 305.713 313.929C307.096 315.115 308.356 316.454 309.471 317.923C311.552 320.842 309.23 326.542 310.563 327.955C314.227 331.868 314.416 328.667 314.193 325.283C314.064 323.322 318.338 320.167 318.08 317.239C318.269 316.906 318.548 316.64 318.88 316.473C320.324 316.127 326.929 322.055 327.824 320.121C328.486 318.717 320.479 312.825 320.944 311.001C321.27 309.715 326.886 310.153 329.544 309.588C329.622 309.646 329.692 309.716 329.75 309.797C330.533 310.874 330.928 315.653 333.19 314.768C336.2 313.582 340.259 298.762 348.722 284.572C353.821 276.017 364.064 269.314 369 259.136C373.937 248.958 373.438 235.625 376.62 226.076C381.531 211.311 387.929 198.315 383.483 192.624ZM311.578 288.019C311.939 295.251 309.626 298.051 307.416 300.577C306.057 292.369 311.363 292.369 308.732 281.608C308.482 280.653 308.124 279.734 307.665 278.872C309.678 282.137 311.441 285.219 311.578 288.019ZM314.958 312.442C315.09 312.66 315.178 312.905 315.218 313.16C315.258 313.416 315.249 313.677 315.19 313.929C314.33 313.409 313.47 312.907 312.679 312.388C313.797 312.15 314.666 312.077 314.958 312.442Z" fill="white"/>
<g opacity="0.2">
<path d="M324.728 280.404L323.868 279.975L321.288 289.122L321.391 267.408L326.078 253.272L325.209 252.88L321.408 264.362L321.503 244.152L329.028 230.855L328.228 230.299L321.511 242.182L321.614 220.057L328.58 208.921L327.806 208.338L321.623 218.215L321.709 199.446L326.146 189.614L325.321 189.122L321.726 197.138L321.821 176.262L327.634 163.64L326.809 163.157L321.829 173.955L321.924 154.21L321.012 154.119L320.918 173.654L311.062 157.931L310.314 158.424L320.909 175.323L320.797 198.278L310.976 187.352L310.348 187.991L320.797 199.61L320.703 218.88L311.2 210.061L310.632 210.773L320.694 220.102L320.591 242.474L310.796 230.49L310.133 231.092L320.582 243.887L320.479 267.162L320.402 267.38L310.881 252.36L310.142 252.852L320.462 269.141L320.359 291.539L312.498 274.768L311.681 275.142L320.35 293.619L320.221 321.006L321.133 321.097L321.27 291.904L324.728 280.404Z" fill="black"/>
<path d="M373.636 231.374L373.223 230.472L363.737 234.63L368.51 224.224L379.183 217.84L378.684 216.983L369.241 222.628L377.162 205.364L376.336 204.881L369.293 220.212L371.082 203.13L370.17 202.929L368.089 222.838L362.989 233.955L363.582 216.345L362.671 216.226L362 236.117L356.204 248.748L354.561 236.272L353.658 236.318L355.498 250.289L348.868 264.745L348.3 249.569L347.389 249.523L348.025 266.587L340.629 282.702L339.846 276.518L338.935 276.537L339.881 284.325L328.004 310.217L328.838 310.709L340.079 286.204L340.122 286.651L350.725 282.127L350.321 281.215L340.887 285.237L340.827 284.581L348.747 267.307L358.878 263.988L358.543 263.057L349.306 266.076L356.462 250.481L368.054 245.282L367.633 244.38L357.098 249.113L363.109 235.989L373.636 231.374Z" fill="black"/>
<path d="M304.81 285.639L303.898 285.493L303.27 295.124L298.54 284.326L300.888 271.968L299.985 271.694L297.878 282.821L291.471 268.201L293.183 253.044L292.28 252.852L290.732 266.514L285.408 254.366L285.941 254.603L286.707 239.683L285.795 239.546L285.09 253.208L284.858 253.108L278.864 239.428L280.016 225.447L279.104 225.274L278.081 237.649L271.769 223.24L270.943 223.586L277.66 238.908L270.307 234.111L269.885 234.932L278.33 240.44L283.645 252.579L276.653 249.524L276.378 250.417L284.204 253.837L289.717 266.423L281.461 261.434L281.065 262.273L290.353 267.882L296.932 282.894L289.562 280.012L289.321 280.924L297.465 284.107L303.141 297.066L303.098 297.768L296.021 293.774L295.651 294.622L303.924 299.301L303.95 298.899L314.794 323.651L315.62 323.304L304.07 296.957L304.81 285.639Z" fill="black"/>
</g>
<path d="M312.18 322.383C312.18 322.383 312.989 319.565 307.33 316.209C305.056 314.776 302.714 313.47 300.312 312.296C300.312 312.296 301.645 316.519 304.569 318.762C307.493 321.006 308.74 322.027 308.74 322.027C306.379 320.806 303.805 320.114 301.181 319.994C298.813 319.926 296.482 320.626 294.499 322C296.964 323.376 299.506 324.594 302.11 325.648C305.214 326.808 308.476 327.424 311.767 327.472C311.767 327.472 304.389 326.56 302.944 328.083C301.596 329.749 300.401 331.548 299.375 333.455C302.417 333.181 305.477 333.196 308.517 333.5C312.43 334.047 317.607 331.959 317.607 331.959L322.027 334.285L323.885 331.357C323.885 331.357 324.925 331.257 328.443 333.181C331.688 334.791 335.036 336.156 338.462 337.267L331.883 328.32L338.531 329.98C341.859 330.81 347.217 329.843 347.217 329.843C347.217 329.843 346.709 328.065 343.063 326.578C339.416 325.092 332.45 322.775 332.45 322.775C332.45 322.775 338.187 324.061 341.996 321.416C344.326 319.781 346.43 317.811 348.249 315.561C348.249 315.561 342.813 312.169 337.688 313.354C334.204 314.318 330.944 316.028 328.107 318.379C328.107 318.379 331.461 315.543 332.536 311.776C333.15 309.723 333.581 307.613 333.826 305.474C333.826 305.474 327.609 307.672 326.026 309.651C324.444 311.63 321.778 317.376 321.778 317.376C321.778 317.376 324.444 311.63 321.331 308.256C318.217 304.882 315.594 302.255 315.594 302.255C315.594 302.255 312.971 306.295 312.43 309.551C311.888 312.807 315.827 318.616 315.827 318.616L312.318 316.665L312.18 322.383Z" fill="#FD8145"/>
<path opacity="0.3" d="M312.18 322.383C312.18 322.383 312.989 319.565 307.33 316.209C305.056 314.776 302.714 313.47 300.312 312.296C300.312 312.296 301.645 316.519 304.569 318.762C307.493 321.006 308.74 322.027 308.74 322.027C306.379 320.806 303.805 320.114 301.181 319.994C298.813 319.926 296.482 320.626 294.499 322C296.964 323.376 299.506 324.594 302.11 325.648C305.214 326.808 308.476 327.424 311.767 327.472C311.767 327.472 304.389 326.56 302.944 328.083C301.596 329.749 300.401 331.548 299.375 333.455C302.417 333.181 305.477 333.196 308.517 333.5C312.43 334.047 317.607 331.959 317.607 331.959L322.027 334.285L323.885 331.357C323.885 331.357 324.925 331.257 328.443 333.181C331.688 334.791 335.036 336.156 338.462 337.267L331.883 328.32L338.531 329.98C341.859 330.81 347.217 329.843 347.217 329.843C347.217 329.843 346.709 328.065 343.063 326.578C339.416 325.092 332.45 322.775 332.45 322.775C332.45 322.775 338.187 324.061 341.996 321.416C344.326 319.781 346.43 317.811 348.249 315.561C348.249 315.561 342.813 312.169 337.688 313.354C334.204 314.318 330.944 316.028 328.107 318.379C328.107 318.379 331.461 315.543 332.536 311.776C333.15 309.723 333.581 307.613 333.826 305.474C333.826 305.474 327.609 307.672 326.026 309.651C324.444 311.63 321.778 317.376 321.778 317.376C321.778 317.376 324.444 311.63 321.331 308.256C318.217 304.882 315.594 302.255 315.594 302.255C315.594 302.255 312.971 306.295 312.43 309.551C311.888 312.807 315.827 318.616 315.827 318.616L312.318 316.665L312.18 322.383Z" fill="white"/>
<path d="M167.184 205.081C167.184 205.081 161.637 200.366 160.209 197.329C159.005 194.749 158.128 191.101 159.349 188.355C159.614 187.701 160.007 187.115 160.503 186.634C160.998 186.154 161.585 185.791 162.223 185.571C162.861 185.35 163.536 185.275 164.203 185.353C164.87 185.431 165.514 185.658 166.092 186.021C169.532 188.31 169.876 196.117 169.007 199.874C168.956 200.202 167.244 205.136 167.184 205.081Z" fill="#FD8145"/>
<path d="M218.492 244.416C218.259 244.644 214.303 247.736 214.278 247.663C214.252 247.59 212.067 240.422 212.437 237.047C212.747 234.175 213.882 230.609 216.333 229.058C216.898 228.673 217.533 228.421 218.198 228.317C218.862 228.213 219.539 228.261 220.185 228.457C220.83 228.653 221.429 228.993 221.94 229.453C222.452 229.914 222.866 230.485 223.153 231.129C224.83 235.087 221.14 241.817 218.492 244.416Z" fill="#FD8145"/>
<path d="M102.211 212.241C102.211 212.241 122.524 234.84 122.421 262.601C122.318 290.363 101.781 312.761 101.781 312.761C101.781 312.761 81.4678 290.162 81.5796 262.401C81.6914 234.639 102.211 212.241 102.211 212.241Z" fill="#FD8145"/>
<path d="M131.176 279.227C130.907 278.917 130.663 278.585 130.445 278.233C128.966 275.816 127.701 272.305 128.656 269.414C128.849 268.732 129.176 268.101 129.617 267.563C130.057 267.025 130.6 266.592 131.21 266.294C131.82 265.996 132.483 265.838 133.154 265.832C133.826 265.826 134.491 265.971 135.106 266.259C137.867 267.663 139.217 272.433 139.509 276.336C140.61 276.063 141.599 275.853 142.45 275.698C142.82 274.786 143.181 273.929 143.551 273.026C143.921 272.123 144.239 271.202 144.592 270.244C145.073 268.858 145.512 267.399 145.951 265.949C144.342 265.173 139.664 262.811 137.918 260.732C136.172 258.653 134.384 255.315 134.917 252.314C135.011 251.608 135.245 250.93 135.604 250.327C135.963 249.723 136.439 249.207 136.999 248.813C137.56 248.418 138.193 248.154 138.857 248.037C139.521 247.921 140.2 247.955 140.851 248.137C144.704 249.378 146.974 256.81 147.051 260.677C147.051 260.805 146.991 261.589 146.914 262.592C147.301 261.161 147.696 259.738 148.04 258.27C149.038 254.111 149.924 249.843 150.835 245.574C151.025 244.662 151.222 243.796 151.42 242.911C150.061 242.264 144.97 239.756 143.147 237.585C141.324 235.415 139.604 232.168 140.137 229.159C140.232 228.453 140.467 227.777 140.827 227.174C141.186 226.572 141.662 226.057 142.222 225.663C142.783 225.269 143.416 225.006 144.079 224.89C144.742 224.774 145.421 224.808 146.071 224.991C149.932 226.222 152.194 233.655 152.28 237.522C152.28 237.667 152.203 238.643 152.108 239.738C152.633 237.421 153.183 235.123 153.828 232.861C154.856 228.974 156.123 225.163 157.621 221.452C157.139 221.233 151.119 218.415 149.09 215.98C147.292 213.837 145.555 210.563 146.08 207.562C146.175 206.855 146.41 206.178 146.77 205.574C147.13 204.971 147.606 204.455 148.168 204.06C148.729 203.666 149.362 203.402 150.027 203.286C150.691 203.169 151.371 203.203 152.022 203.385C155.875 204.626 158.145 212.058 158.223 215.925C158.223 216.199 157.93 219.738 157.784 220.996L157.836 220.868C159.386 217.268 161.237 213.823 163.366 210.572C165.242 207.66 167.278 204.868 169.463 202.209C171.467 199.728 173.445 197.585 175.199 195.697C176.162 194.694 177.057 193.782 177.9 192.961H177.814C177.745 192.961 179.697 188.128 179.852 187.836C181.658 184.48 186.964 179.154 190.894 180.075C191.548 180.255 192.16 180.578 192.689 181.024C193.218 181.469 193.654 182.027 193.968 182.662C194.283 183.296 194.468 183.994 194.513 184.709C194.559 185.424 194.462 186.141 194.231 186.814C193.371 189.724 190.361 191.684 187.833 192.624C185.304 193.563 179.551 193.125 178.14 192.989C177.28 193.901 176.369 194.813 175.388 195.916C173.668 197.831 171.742 200.02 169.798 202.537C169.282 203.212 168.749 203.96 168.225 204.671C169.343 203.668 170.899 202.318 171.063 202.209C174.098 200.13 181.09 198.032 184.186 200.804C184.69 201.284 185.094 201.869 185.373 202.523C185.652 203.177 185.8 203.885 185.807 204.603C185.814 205.321 185.681 206.032 185.415 206.692C185.15 207.353 184.757 207.947 184.264 208.438C182.243 210.59 178.751 210.846 176.094 210.426C173.436 210.006 168.354 206.65 167.296 205.912C166.152 207.498 165.008 209.167 163.907 210.982C161.872 214.243 160.114 217.689 158.653 221.279C158.567 221.489 158.507 221.707 158.429 221.917C158.902 221.324 161.723 218.269 161.947 218.059C164.75 215.634 171.484 212.724 174.847 215.114C175.396 215.532 175.858 216.067 176.202 216.685C176.547 217.303 176.766 217.99 176.847 218.703C176.928 219.415 176.869 220.138 176.672 220.825C176.476 221.511 176.147 222.147 175.707 222.692C173.918 225.064 170.469 225.729 167.786 225.629C164.699 225.51 158.61 222.2 158.386 222.072C157.016 225.696 155.867 229.41 154.946 233.19C154.25 235.989 153.656 238.853 153.08 241.735C153.716 240.969 156.339 238.087 156.52 237.932C159.324 235.506 166.057 232.597 169.42 234.986C169.97 235.405 170.431 235.94 170.776 236.558C171.12 237.176 171.34 237.863 171.421 238.575C171.502 239.288 171.442 240.01 171.246 240.697C171.049 241.384 170.72 242.02 170.28 242.565C168.491 244.936 165.043 245.611 162.368 245.502C159.349 245.383 153.501 242.237 153.011 241.972C152.745 243.276 152.487 244.59 152.229 245.903C151.369 250.189 150.603 254.485 149.649 258.671C149.33 260.13 148.969 261.553 148.608 262.994C149.597 261.881 151.42 259.893 151.601 259.747C154.396 257.321 161.138 254.412 164.501 256.792C165.051 257.212 165.513 257.748 165.857 258.366C166.202 258.985 166.421 259.672 166.502 260.386C166.583 261.099 166.523 261.822 166.327 262.51C166.13 263.197 165.801 263.834 165.361 264.38C163.563 266.751 160.123 267.417 157.44 267.317C154.757 267.216 149.778 264.681 148.384 263.942C147.774 266.323 147.12 268.666 146.372 270.946C146.037 271.913 145.744 272.934 145.366 273.846L144.798 275.306C145.297 275.242 145.581 275.224 145.581 275.224C145.581 275.224 145.632 276.573 145.512 278.78C148.47 276.51 152.727 274.558 155.505 275.926C156.107 276.253 156.639 276.71 157.066 277.267C157.493 277.824 157.806 278.469 157.985 279.161C158.165 279.853 158.207 280.577 158.108 281.287C158.01 281.997 157.774 282.678 157.414 283.286C157.233 283.608 157.026 283.913 156.795 284.198C156.274 287.546 154.96 290.7 152.977 293.363C152.822 293.555 150.818 295.552 149.769 296.546C150.784 295.953 151.79 295.37 152.831 294.722C154.344 293.81 155.909 292.816 157.432 291.849L159.779 290.235C160.579 289.706 161.293 289.095 162.067 288.521C163.185 287.654 164.294 286.697 165.404 285.785C164.458 284.189 161.766 279.401 161.37 276.665C160.975 273.929 161.19 270.034 163.176 267.846C163.622 267.314 164.17 266.89 164.783 266.601C165.396 266.312 166.06 266.165 166.731 266.17C167.402 266.176 168.064 266.333 168.673 266.631C169.282 266.929 169.824 267.362 170.263 267.9C172.843 271.22 170.934 278.762 169.016 282.045C168.956 282.146 168.483 282.793 167.915 283.559C168.973 282.593 170.031 281.635 171.071 280.623C174.03 277.741 176.954 274.713 179.903 271.694L181.752 269.815C180.953 268.475 177.986 263.358 177.581 260.458C177.177 257.558 177.401 253.828 179.379 251.639C179.825 251.108 180.373 250.684 180.986 250.395C181.599 250.106 182.263 249.959 182.934 249.964C183.605 249.969 184.267 250.126 184.876 250.425C185.485 250.723 186.027 251.156 186.465 251.694C189.045 255.014 187.136 262.556 185.227 265.839C185.158 265.958 184.59 266.751 183.954 267.581C185.579 265.967 187.213 264.371 188.882 262.848C191.725 260.204 194.733 257.766 197.886 255.552C197.594 255.078 194.007 249.168 193.586 245.93C193.182 243.076 193.405 239.309 195.383 237.12C195.829 236.588 196.376 236.163 196.989 235.874C197.602 235.584 198.266 235.436 198.936 235.441C199.607 235.445 200.269 235.601 200.879 235.899C201.488 236.196 202.031 236.628 202.47 237.166C205.05 240.495 203.141 248.037 201.231 251.311C201.094 251.548 199.03 254.321 198.264 255.287L198.376 255.205C201.514 253.127 204.821 251.351 208.258 249.897C211.303 248.62 214.416 247.53 217.58 246.632C220.53 245.72 223.265 245.137 225.698 244.617C227.014 244.343 228.227 244.115 229.362 243.924L229.293 243.869C229.233 243.814 233.335 240.951 233.593 240.805C236.818 239.081 243.973 237.786 246.777 240.896C247.232 241.427 247.578 242.053 247.792 242.733C248.007 243.414 248.086 244.134 248.023 244.849C247.961 245.564 247.759 246.257 247.431 246.884C247.102 247.511 246.654 248.059 246.115 248.493C243.887 250.399 240.396 250.262 237.799 249.542C235.201 248.821 230.635 245.036 229.525 244.07C228.356 244.298 227.109 244.553 225.733 244.872C223.316 245.447 220.573 246.122 217.683 247.07C216.909 247.326 216.084 247.626 215.275 247.909C216.729 247.745 218.715 247.544 218.913 247.544C222.499 247.617 229.405 250.025 230.575 254.175C230.747 254.863 230.782 255.582 230.679 256.285C230.576 256.989 230.336 257.662 229.974 258.262C229.613 258.862 229.138 259.376 228.58 259.771C228.021 260.167 227.392 260.435 226.73 260.559C223.944 261.142 220.9 259.282 218.896 257.348C216.892 255.415 214.389 249.615 213.873 248.356C212.102 249.004 210.296 249.715 208.447 250.572C205.081 252.083 201.851 253.915 198.798 256.044C198.617 256.172 198.454 256.318 198.273 256.446C198.978 256.236 202.908 255.342 203.192 255.315C206.77 254.959 213.873 256.537 215.456 260.531C215.704 261.198 215.818 261.912 215.791 262.628C215.764 263.344 215.596 264.046 215.298 264.689C215 265.332 214.578 265.902 214.061 266.362C213.543 266.823 212.94 267.163 212.291 267.362C209.582 268.274 206.366 266.788 204.181 265.1C201.67 263.167 198.282 256.783 198.161 256.537C195.166 258.754 192.308 261.173 189.604 263.778C187.592 265.693 185.631 267.727 183.679 269.788C184.599 269.533 188.254 268.712 188.521 268.685C192.098 268.329 199.21 269.907 200.784 273.892C201.032 274.559 201.147 275.273 201.119 275.989C201.092 276.705 200.924 277.407 200.626 278.05C200.328 278.693 199.907 279.263 199.389 279.723C198.871 280.184 198.269 280.524 197.619 280.723C194.91 281.635 191.694 280.148 189.518 278.47C187.059 276.573 183.791 270.472 183.498 269.961L180.841 272.77C177.968 275.862 175.087 278.972 172.163 281.945C171.157 282.976 170.125 283.951 169.093 284.927C170.478 284.59 173.023 284.015 173.247 284.015C176.825 283.66 183.928 285.237 185.511 289.232C185.759 289.898 185.873 290.612 185.846 291.328C185.819 292.044 185.651 292.746 185.353 293.39C185.055 294.033 184.633 294.603 184.115 295.063C183.598 295.523 182.995 295.864 182.346 296.063C179.637 296.975 176.42 295.488 174.236 293.801C172.052 292.114 169.196 287.052 168.405 285.593C166.685 287.216 164.965 288.776 163.151 290.235C162.368 290.837 161.603 291.512 160.82 292.059L158.515 293.728C156.898 294.804 155.402 295.807 153.871 296.774C153.106 297.267 152.366 297.686 151.618 298.179C152.977 297.604 155.144 296.738 155.35 296.683C158.842 295.771 166.083 296.145 168.207 299.829C168.55 300.451 168.767 301.143 168.843 301.859C168.919 302.575 168.853 303.299 168.649 303.987C168.444 304.674 168.107 305.308 167.658 305.849C167.208 306.389 166.657 306.824 166.04 307.125C163.46 308.466 160.106 307.518 157.707 306.213C155.067 304.772 151.102 299.474 150.612 298.826C148.771 299.957 146.965 301.042 145.254 302.027C140.696 304.654 136.714 306.751 133.627 308.32C123.591 317.668 109.469 318.699 109.469 318.699C109.469 318.699 108.73 300.459 118.689 288.475C122.156 284.453 126.421 281.295 131.176 279.227ZM149.09 297.002C148.78 296.254 146.372 290.463 146.209 287.198C145.65 287.089 145.091 286.961 144.549 286.824C143.531 292.572 141.409 298.035 138.314 302.875C140.137 301.963 142.115 300.906 144.213 299.756C145.77 298.908 147.413 297.978 149.09 297.002Z" fill="#FD8145"/>
<path d="M57.1815 275.743C57.1815 275.743 74.0977 276.3 84.4607 287.9C94.8237 299.501 94.6861 317.741 94.6861 317.741C94.6861 317.741 77.7699 317.185 67.4069 305.584C57.0439 293.983 57.1815 275.743 57.1815 275.743Z" fill="#FD8145"/>
<g opacity="0.5">
<path d="M167.184 205.081C167.184 205.081 161.637 200.366 160.209 197.329C159.005 194.749 158.128 191.101 159.349 188.355C159.614 187.701 160.007 187.115 160.503 186.634C160.998 186.154 161.585 185.791 162.223 185.571C162.861 185.35 163.536 185.275 164.203 185.353C164.87 185.431 165.514 185.658 166.092 186.021C169.532 188.31 169.876 196.117 169.007 199.874C168.956 200.202 167.244 205.136 167.184 205.081Z" fill="white"/>
<path d="M218.492 244.416C218.26 244.644 214.304 247.736 214.278 247.663C214.252 247.59 212.068 240.422 212.437 237.047C212.747 234.175 213.882 230.609 216.333 229.058C216.898 228.673 217.534 228.421 218.198 228.317C218.862 228.213 219.539 228.261 220.185 228.457C220.83 228.653 221.429 228.993 221.941 229.453C222.452 229.914 222.866 230.485 223.153 231.129C224.83 235.087 221.141 241.817 218.492 244.416Z" fill="white"/>
<path d="M102.211 212.241C102.211 212.241 122.524 234.84 122.421 262.601C122.318 290.363 101.781 312.761 101.781 312.761C101.781 312.761 81.468 290.162 81.5798 262.401C81.6916 234.639 102.211 212.241 102.211 212.241Z" fill="white"/>
<path d="M131.176 279.227C130.907 278.917 130.663 278.585 130.445 278.233C128.966 275.816 127.701 272.305 128.656 269.414C128.849 268.732 129.176 268.101 129.617 267.563C130.057 267.025 130.6 266.592 131.21 266.294C131.82 265.996 132.483 265.838 133.154 265.832C133.826 265.826 134.491 265.971 135.106 266.259C137.867 267.663 139.217 272.433 139.509 276.336C140.61 276.063 141.599 275.853 142.45 275.698C142.82 274.786 143.181 273.929 143.551 273.026C143.921 272.123 144.239 271.202 144.592 270.244C145.073 268.858 145.512 267.399 145.951 265.949C144.342 265.173 139.664 262.811 137.918 260.732C136.172 258.653 134.384 255.315 134.917 252.314C135.011 251.608 135.245 250.93 135.604 250.327C135.963 249.723 136.439 249.207 136.999 248.813C137.56 248.418 138.193 248.154 138.857 248.037C139.521 247.921 140.2 247.955 140.851 248.137C144.704 249.378 146.974 256.81 147.051 260.677C147.051 260.805 146.991 261.589 146.914 262.592C147.301 261.161 147.696 259.738 148.04 258.27C149.038 254.111 149.924 249.843 150.835 245.574C151.025 244.662 151.222 243.796 151.42 242.911C150.061 242.264 144.97 239.756 143.147 237.585C141.324 235.415 139.604 232.168 140.137 229.159C140.232 228.453 140.467 227.777 140.827 227.174C141.186 226.572 141.662 226.057 142.222 225.663C142.783 225.269 143.416 225.006 144.079 224.89C144.742 224.774 145.421 224.808 146.071 224.991C149.932 226.222 152.194 233.655 152.28 237.522C152.28 237.667 152.203 238.643 152.108 239.738C152.633 237.421 153.183 235.123 153.828 232.861C154.856 228.974 156.123 225.163 157.621 221.452C157.139 221.233 151.119 218.415 149.09 215.98C147.292 213.837 145.555 210.563 146.08 207.562C146.175 206.855 146.41 206.178 146.77 205.574C147.13 204.971 147.606 204.455 148.168 204.06C148.729 203.666 149.362 203.402 150.027 203.286C150.691 203.169 151.371 203.203 152.022 203.385C155.875 204.626 158.145 212.058 158.223 215.925C158.223 216.199 157.93 219.738 157.784 220.996L157.836 220.868C159.386 217.268 161.237 213.823 163.366 210.572C165.242 207.66 167.278 204.868 169.463 202.209C171.467 199.728 173.445 197.585 175.199 195.697C176.162 194.694 177.057 193.782 177.9 192.961H177.814C177.745 192.961 179.697 188.128 179.852 187.836C181.658 184.48 186.964 179.154 190.894 180.075C191.548 180.255 192.16 180.578 192.689 181.024C193.218 181.469 193.654 182.027 193.968 182.662C194.283 183.296 194.468 183.994 194.513 184.709C194.559 185.424 194.462 186.141 194.231 186.814C193.371 189.724 190.361 191.684 187.833 192.624C185.304 193.563 179.551 193.125 178.14 192.989C177.28 193.901 176.369 194.813 175.388 195.916C173.668 197.831 171.742 200.02 169.798 202.537C169.282 203.212 168.749 203.96 168.225 204.671C169.343 203.668 170.899 202.318 171.063 202.209C174.098 200.13 181.09 198.032 184.186 200.804C184.69 201.284 185.094 201.869 185.373 202.523C185.652 203.177 185.8 203.885 185.807 204.603C185.814 205.321 185.681 206.032 185.415 206.692C185.15 207.353 184.757 207.947 184.264 208.438C182.243 210.59 178.751 210.846 176.094 210.426C173.436 210.006 168.354 206.65 167.296 205.912C166.152 207.498 165.008 209.167 163.907 210.982C161.872 214.243 160.114 217.689 158.653 221.279C158.567 221.489 158.507 221.707 158.429 221.917C158.902 221.324 161.723 218.269 161.947 218.059C164.75 215.634 171.484 212.724 174.847 215.114C175.396 215.532 175.858 216.067 176.202 216.685C176.547 217.303 176.766 217.99 176.847 218.703C176.928 219.415 176.869 220.138 176.672 220.825C176.476 221.511 176.147 222.147 175.707 222.692C173.918 225.064 170.469 225.729 167.786 225.629C164.699 225.51 158.61 222.2 158.386 222.072C157.016 225.696 155.867 229.41 154.946 233.19C154.25 235.989 153.656 238.853 153.08 241.735C153.716 240.969 156.339 238.087 156.52 237.932C159.324 235.506 166.057 232.597 169.42 234.986C169.97 235.405 170.431 235.94 170.776 236.558C171.12 237.176 171.34 237.863 171.421 238.575C171.502 239.288 171.442 240.01 171.246 240.697C171.049 241.384 170.72 242.02 170.28 242.565C168.491 244.936 165.043 245.611 162.368 245.502C159.349 245.383 153.501 242.237 153.011 241.972C152.745 243.276 152.487 244.59 152.229 245.903C151.369 250.189 150.603 254.485 149.649 258.671C149.33 260.13 148.969 261.553 148.608 262.994C149.597 261.881 151.42 259.893 151.601 259.747C154.396 257.321 161.138 254.412 164.501 256.792C165.051 257.212 165.513 257.748 165.857 258.366C166.202 258.985 166.421 259.672 166.502 260.386C166.583 261.099 166.523 261.822 166.327 262.51C166.13 263.197 165.801 263.834 165.361 264.38C163.563 266.751 160.123 267.417 157.44 267.317C154.757 267.216 149.778 264.681 148.384 263.942C147.774 266.323 147.12 268.666 146.372 270.946C146.037 271.913 145.744 272.934 145.366 273.846L144.798 275.306C145.297 275.242 145.581 275.224 145.581 275.224C145.581 275.224 145.632 276.573 145.512 278.78C148.47 276.51 152.727 274.558 155.505 275.926C156.107 276.253 156.639 276.71 157.066 277.267C157.493 277.824 157.806 278.469 157.985 279.161C158.165 279.853 158.207 280.577 158.108 281.287C158.01 281.997 157.774 282.678 157.414 283.286C157.233 283.608 157.026 283.913 156.795 284.198C156.274 287.546 154.96 290.7 152.977 293.363C152.822 293.555 150.818 295.552 149.769 296.546C150.784 295.953 151.79 295.37 152.831 294.722C154.344 293.81 155.909 292.816 157.432 291.849L159.779 290.235C160.579 289.706 161.293 289.095 162.067 288.521C163.185 287.654 164.294 286.697 165.404 285.785C164.458 284.189 161.766 279.401 161.37 276.665C160.975 273.929 161.19 270.034 163.176 267.846C163.622 267.314 164.17 266.89 164.783 266.601C165.396 266.312 166.06 266.165 166.731 266.17C167.402 266.176 168.064 266.333 168.673 266.631C169.282 266.929 169.824 267.362 170.263 267.9C172.843 271.22 170.934 278.762 169.016 282.045C168.956 282.146 168.483 282.793 167.915 283.559C168.973 282.593 170.031 281.635 171.071 280.623C174.03 277.741 176.954 274.713 179.903 271.694L181.752 269.815C180.953 268.475 177.986 263.358 177.581 260.458C177.177 257.558 177.401 253.828 179.379 251.639C179.825 251.108 180.373 250.684 180.986 250.395C181.599 250.106 182.263 249.959 182.934 249.964C183.605 249.969 184.267 250.126 184.876 250.425C185.485 250.723 186.027 251.156 186.465 251.694C189.045 255.014 187.136 262.556 185.227 265.839C185.158 265.958 184.59 266.751 183.954 267.581C185.579 265.967 187.213 264.371 188.882 262.848C191.725 260.204 194.733 257.766 197.886 255.552C197.594 255.078 194.007 249.168 193.586 245.93C193.182 243.076 193.405 239.309 195.383 237.12C195.829 236.588 196.376 236.163 196.989 235.874C197.602 235.584 198.266 235.436 198.936 235.441C199.607 235.445 200.269 235.601 200.879 235.899C201.488 236.196 202.031 236.628 202.47 237.166C205.05 240.495 203.141 248.037 201.231 251.311C201.094 251.548 199.03 254.321 198.264 255.287L198.376 255.205C201.514 253.127 204.821 251.351 208.258 249.897C211.303 248.62 214.416 247.53 217.58 246.632C220.53 245.72 223.265 245.137 225.698 244.617C227.014 244.343 228.227 244.115 229.362 243.924L229.293 243.869C229.233 243.814 233.335 240.951 233.593 240.805C236.818 239.081 243.973 237.786 246.777 240.896C247.232 241.427 247.578 242.053 247.792 242.733C248.007 243.414 248.086 244.134 248.023 244.849C247.961 245.564 247.759 246.257 247.431 246.884C247.102 247.511 246.654 248.059 246.115 248.493C243.887 250.399 240.396 250.262 237.799 249.542C235.201 248.821 230.635 245.036 229.525 244.07C228.356 244.298 227.109 244.553 225.733 244.872C223.316 245.447 220.573 246.122 217.683 247.07C216.909 247.326 216.084 247.626 215.275 247.909C216.729 247.745 218.715 247.544 218.913 247.544C222.499 247.617 229.405 250.025 230.575 254.175C230.747 254.863 230.782 255.582 230.679 256.285C230.576 256.989 230.336 257.662 229.974 258.262C229.613 258.862 229.138 259.376 228.58 259.771C228.021 260.167 227.392 260.435 226.73 260.559C223.944 261.142 220.9 259.282 218.896 257.348C216.892 255.415 214.389 249.615 213.873 248.356C212.102 249.004 210.296 249.715 208.447 250.572C205.081 252.083 201.851 253.915 198.798 256.044C198.617 256.172 198.454 256.318 198.273 256.446C198.978 256.236 202.908 255.342 203.192 255.315C206.77 254.959 213.873 256.537 215.456 260.531C215.704 261.198 215.818 261.912 215.791 262.628C215.764 263.344 215.596 264.046 215.298 264.689C215 265.332 214.578 265.902 214.061 266.362C213.543 266.823 212.94 267.163 212.291 267.362C209.582 268.274 206.366 266.788 204.181 265.1C201.67 263.167 198.282 256.783 198.161 256.537C195.166 258.754 192.308 261.173 189.604 263.778C187.592 265.693 185.631 267.727 183.679 269.788C184.599 269.533 188.254 268.712 188.521 268.685C192.098 268.329 199.21 269.907 200.784 273.892C201.032 274.559 201.147 275.273 201.119 275.989C201.092 276.705 200.924 277.407 200.626 278.05C200.328 278.693 199.907 279.263 199.389 279.723C198.871 280.184 198.269 280.524 197.619 280.723C194.91 281.635 191.694 280.148 189.518 278.47C187.059 276.573 183.791 270.472 183.498 269.961L180.841 272.77C177.968 275.862 175.087 278.972 172.163 281.945C171.157 282.976 170.125 283.951 169.093 284.927C170.478 284.59 173.023 284.015 173.247 284.015C176.825 283.66 183.928 285.237 185.511 289.232C185.759 289.898 185.873 290.612 185.846 291.328C185.819 292.044 185.651 292.746 185.353 293.39C185.055 294.033 184.633 294.603 184.115 295.063C183.598 295.523 182.995 295.864 182.346 296.063C179.637 296.975 176.42 295.488 174.236 293.801C172.052 292.114 169.196 287.052 168.405 285.593C166.685 287.216 164.965 288.776 163.151 290.235C162.368 290.837 161.603 291.512 160.82 292.059L158.515 293.728C156.898 294.804 155.402 295.807 153.871 296.774C153.106 297.267 152.366 297.686 151.618 298.179C152.977 297.604 155.144 296.738 155.35 296.683C158.842 295.771 166.083 296.145 168.207 299.829C168.55 300.451 168.767 301.143 168.843 301.859C168.919 302.575 168.853 303.299 168.649 303.987C168.444 304.674 168.107 305.308 167.658 305.849C167.208 306.389 166.657 306.824 166.04 307.125C163.46 308.466 160.106 307.518 157.707 306.213C155.067 304.772 151.102 299.474 150.612 298.826C148.771 299.957 146.965 301.042 145.254 302.027C140.696 304.654 136.714 306.751 133.627 308.32C123.591 317.668 109.469 318.699 109.469 318.699C109.469 318.699 108.73 300.459 118.689 288.475C122.156 284.453 126.421 281.295 131.176 279.227ZM149.09 297.002C148.78 296.254 146.372 290.463 146.209 287.198C145.65 287.089 145.091 286.961 144.549 286.824C143.531 292.572 141.409 298.035 138.314 302.875C140.137 301.963 142.115 300.906 144.213 299.756C145.77 298.908 147.413 297.978 149.09 297.002Z" fill="white"/>
<path d="M57.1815 275.743C57.1815 275.743 74.0977 276.3 84.4607 287.9C94.8237 299.501 94.6861 317.741 94.6861 317.741C94.6861 317.741 77.7699 317.185 67.4069 305.584C57.0439 293.983 57.1815 275.743 57.1815 275.743Z" fill="white"/>
</g>
<g opacity="0.2">
<path d="M101.377 287.49L84.7529 271.384L85.4667 270.527L101.385 285.958L101.471 264.845L101.385 264.909L87.3243 242.756L88.2015 242.109L101.48 263.021L101.678 212.241H102.744L102.607 246.714L113.185 236.846L113.89 237.713L102.598 248.237L102.503 272.889L118.542 257.594L119.248 258.452L102.495 274.421L102.409 296.865L114.457 286.669L115.12 287.572L102.4 298.334L102.34 312.78L101.274 312.77L101.377 287.49Z" fill="black"/>
<path d="M116.685 293.71L117.743 293.573L119.084 306.332L126.222 297.732H126.214L128.02 282.292L129.077 282.437L127.461 296.245L145.194 274.877L145.994 275.643L133.954 290.144L141.573 290.244L141.565 291.393L133.016 291.275L124.571 301.444L136.491 301.462V302.611L123.625 302.593L115.945 311.84L124.356 312.388L124.287 313.528L115.042 312.935L109.934 319.091L109.134 318.325L118.138 307.481L116.685 293.71Z" fill="black"/>
<path d="M76.5228 298.251L62.3758 295.16L62.5908 294.029L75.25 296.801L56.7944 276.145L57.5598 275.342L70.0814 289.359L70.7436 281.179L71.8014 281.279L71.0618 290.463L79.8424 300.285L80.7454 287.481L81.8118 287.572L80.8314 301.398L88.8122 310.335L89.9474 301.343L90.9966 301.498L89.7582 311.393L95.073 317.34L94.3076 318.142L84.9422 307.654L72.0938 308.192L72.0508 307.043L83.9532 306.551L76.5314 298.233L76.5228 298.251Z" fill="black"/>
</g>
<path d="M146.088 321.352L40.7039 339.182L234.857 374.85L393.88 345.666L146.088 321.352Z" fill="#FD8145"/>
<path opacity="0.15" d="M213.142 349.123C242.771 349.123 266.789 346.089 266.789 342.346C266.789 338.604 242.771 335.57 213.142 335.57C183.514 335.57 159.496 338.604 159.496 342.346C159.496 346.089 183.514 349.123 213.142 349.123Z" fill="black"/>
<path d="M208.67 268.857C208.67 268.857 204.198 270.216 190.473 269.879C176.747 269.541 156.933 262.765 149.279 262.765C141.625 262.765 133.3 265.811 130.118 272.587C126.936 279.364 124.046 287.827 142.571 295.615C161.095 303.404 175.139 305.775 201.644 312.88C228.149 319.984 238.684 320.331 252.384 316.61C266.084 312.889 275.372 303.404 274.099 290.162C272.826 276.919 269.945 268.83 263.246 266.796C256.547 264.762 208.67 268.857 208.67 268.857Z" fill="#263238" stroke="#263238" stroke-linecap="round" stroke-linejoin="round"/>
<path d="M230.093 160.995C230.093 160.995 230.574 167.434 228.88 171.027C227.186 174.621 220.375 178.241 214.544 181.588C208.713 184.935 200.457 184.425 197.06 190.088C193.663 195.752 193.904 205.282 193.904 205.282C193.904 205.282 188.555 214.046 184.186 221.771C179.817 229.496 177.383 237.485 182.973 241.835C188.563 246.185 195.357 239.774 199.004 233.627C202.65 227.48 206.047 220.494 206.047 220.494C206.047 220.494 210.7 244.416 209.444 250.882C208.189 257.348 205.316 263.504 205.316 266.386C205.316 269.268 207.501 271.283 210.906 272.049C214.312 272.816 225.965 273.873 233.98 273.345C241.995 272.816 264.828 271.283 265.8 267.927C266.772 264.571 268.225 241.397 268.225 241.397C268.225 241.397 282.553 246.55 286.93 237.284C291.308 228.018 291.54 207.188 288.384 196.837C285.227 186.486 277.204 182.673 272.353 180.102C267.503 177.53 254.138 170.827 251.713 167.99C249.288 165.154 248.54 151.2 248.54 146.567C248.54 141.934 248.058 146.312 243.44 149.914C238.822 153.517 230.093 160.995 230.093 160.995Z" fill="white"/>
<mask id="mask0_22_604" style="mask-type:luminance" maskUnits="userSpaceOnUse" x="179" y="144" width="112" height="130">
<path d="M230.093 160.995C230.093 160.995 230.574 167.434 228.88 171.027C227.186 174.621 220.375 178.241 214.544 181.588C208.713 184.935 200.457 184.425 197.06 190.088C193.663 195.752 193.904 205.282 193.904 205.282C193.904 205.282 188.555 214.046 184.186 221.771C179.817 229.496 177.383 237.485 182.973 241.835C188.563 246.185 195.357 239.774 199.004 233.627C202.65 227.48 206.047 220.494 206.047 220.494C206.047 220.494 210.7 244.416 209.444 250.882C208.189 257.348 205.316 263.504 205.316 266.386C205.316 269.268 207.501 271.283 210.906 272.049C214.312 272.816 225.965 273.873 233.98 273.345C241.995 272.816 264.828 271.283 265.8 267.927C266.772 264.571 268.225 241.397 268.225 241.397C268.225 241.397 282.553 246.55 286.93 237.284C291.308 228.018 291.54 207.188 288.384 196.837C285.227 186.486 277.204 182.673 272.353 180.102C267.503 177.53 254.138 170.827 251.713 167.99C249.288 165.154 248.54 151.2 248.54 146.567C248.54 141.934 248.058 146.312 243.44 149.914C238.822 153.517 230.093 160.995 230.093 160.995Z" fill="white"/>
</mask>
<g mask="url(#mask0_22_604)">
<path d="M288.384 196.791C285.227 186.495 277.204 182.628 272.353 180.056C267.503 177.484 254.138 170.781 251.713 167.945C249.288 165.108 248.54 151.2 248.54 146.567C248.54 141.934 248.058 146.312 243.44 149.914C238.822 153.517 230.084 160.995 230.084 160.995C230.174 162.456 230.174 163.921 230.084 165.382C232.845 166.65 236.5 168.118 238.538 168.118C242.09 168.118 243.156 170.754 244.558 173.389C245.96 176.025 243.492 179.035 243.492 179.035C243.492 179.035 254.852 179.792 258.757 180.913C262.661 182.035 272.955 183.549 279.345 189.203C284.393 193.654 287.885 201.853 290.181 207.152C289.933 203.64 289.33 200.167 288.384 196.791Z" fill="#FD8145"/>
<path opacity="0.6" d="M288.384 196.791C285.227 186.495 277.204 182.628 272.353 180.056C267.503 177.484 254.138 170.781 251.713 167.945C249.288 165.108 248.54 151.2 248.54 146.567C248.54 141.934 248.058 146.312 243.44 149.914C238.822 153.517 230.084 160.995 230.084 160.995C230.174 162.456 230.174 163.921 230.084 165.382C232.845 166.65 236.5 168.118 238.538 168.118C242.09 168.118 243.156 170.754 244.558 173.389C245.96 176.025 243.492 179.035 243.492 179.035C243.492 179.035 254.852 179.792 258.757 180.913C262.661 182.035 272.955 183.549 279.345 189.203C284.393 193.654 287.885 201.853 290.181 207.152C289.933 203.64 289.33 200.167 288.384 196.791Z" fill="white"/>
</g>
<path d="M230.093 160.995C230.093 160.995 230.574 167.434 228.88 171.027C227.186 174.621 220.375 178.241 214.544 181.588C208.713 184.935 200.457 184.425 197.06 190.088C193.663 195.752 193.904 205.282 193.904 205.282C193.904 205.282 188.555 214.046 184.186 221.771C179.817 229.496 177.383 237.485 182.973 241.835C188.563 246.185 195.357 239.774 199.004 233.627C202.65 227.48 206.047 220.494 206.047 220.494C206.047 220.494 210.7 244.416 209.444 250.882C208.189 257.348 205.316 263.504 205.316 266.386C205.316 269.268 207.501 271.283 210.906 272.049C214.312 272.816 225.965 273.873 233.98 273.345C241.995 272.816 264.828 271.283 265.8 267.927C266.772 264.571 268.225 241.397 268.225 241.397C268.225 241.397 282.553 246.55 286.93 237.284C291.308 228.018 291.54 207.188 288.384 196.837C285.227 186.486 277.204 182.673 272.353 180.102C267.503 177.53 254.138 170.827 251.713 167.99C249.288 165.154 248.54 151.2 248.54 146.567C248.54 141.934 248.058 146.312 243.44 149.914C238.822 153.517 230.093 160.995 230.093 160.995Z" stroke="#263238" stroke-linecap="round" stroke-linejoin="round"/>
<path d="M264.097 130.854C266.041 126.996 268.956 120.293 265.069 115.66C261.182 111.027 258.757 113.836 258.267 109.221C257.776 104.606 256.813 99.6905 252.436 99.6905C248.058 99.6905 244.911 101.514 242.236 99.6905C239.562 97.8665 237.377 92.7319 230.575 92.7319C223.772 92.7319 223.781 103.813 222.559 105.099C221.959 105.558 221.286 105.901 220.573 106.111C220.32 106.044 220.083 105.919 219.881 105.744C219.679 105.569 219.516 105.348 219.403 105.099C218.191 102.527 221.588 102.782 223.05 98.9153C224.512 95.0484 220.375 92.4766 217.46 94.7931C214.544 97.1095 220.616 96.8542 217.219 100.721C213.822 104.588 211.878 109.221 215 114.912C218.122 120.603 221.803 117.228 221.803 117.228C222.525 116.718 223.179 119.618 229.654 120.876C235.821 122.071 240.035 119.964 240.525 127.151C241.015 134.337 247.061 138.359 248.764 139.39C250.466 140.42 246.089 146.093 247.044 148.665C247.998 151.237 251.172 150.981 253.115 150.726C255.059 150.471 253.846 147.379 257.974 146.859C262.102 146.339 263.556 145.035 265.258 140.165C266.961 135.295 262.154 134.72 264.097 130.854Z" fill="#263238" stroke="#263238" stroke-linecap="round" stroke-linejoin="round"/>
<path d="M263.263 123.913C264.004 124.005 264.752 123.804 265.362 123.348" stroke="white" stroke-linecap="round" stroke-linejoin="round"/>
<path d="M248.342 113.425C248.342 113.425 252.642 109.777 255.153 114.337C256.693 117.073 258.696 120.721 260.881 122.673" stroke="white" stroke-linecap="round" stroke-linejoin="round"/>
<path d="M246.218 126.056C248.882 125.528 251.6 125.375 254.302 125.6C258.129 126.056 257.742 129.248 261.956 129.248" stroke="white" stroke-linecap="round" stroke-linejoin="round"/>
<path d="M228.459 108.957C228.817 109.42 229.221 109.842 229.663 110.215" stroke="white" stroke-linecap="round" stroke-linejoin="round"/>
<path d="M246.046 109.002C246.046 109.002 244.945 112.969 240.688 107.561C236.431 102.153 233.481 95.8873 228.648 101.259C228.07 101.81 227.622 102.497 227.341 103.266C227.06 104.034 226.954 104.862 227.031 105.682" stroke="white" stroke-linecap="round" stroke-linejoin="round"/>
<path d="M217.717 110.47C217.298 109.551 217.008 108.57 216.857 107.561" stroke="white" stroke-linecap="round" stroke-linejoin="round"/>
<path d="M225.371 114.775C225.371 114.775 221.286 115.286 218.715 112.084" stroke="white" stroke-linecap="round" stroke-linejoin="round"/>
<path d="M272.353 180.056C268.569 178.04 259.608 173.526 254.698 170.297C253.081 175.441 248.334 187.261 238.839 187.261C230.084 187.261 227.513 178.578 226.799 173.717C223.892 176.453 218.965 179.08 214.579 181.597C208.756 184.944 200.492 184.433 197.095 190.097C193.698 195.76 193.939 205.291 193.939 205.291C193.939 205.291 192.133 208.255 189.768 212.24C199.58 211.72 206.108 220.494 206.108 220.494C206.108 220.494 210.7 244.416 209.444 250.882C208.189 257.348 205.316 263.504 205.316 266.386C205.316 269.268 207.501 271.283 210.906 272.049C214.312 272.815 225.965 273.873 233.98 273.344C241.995 272.815 264.828 271.283 265.8 267.927C266.772 264.571 268.225 241.397 268.225 241.397L266.772 221.05C278.975 212.496 287.507 218.487 290.302 221.05C290.904 212.304 290.216 202.81 288.384 196.827C285.228 186.494 277.212 182.628 272.353 180.056Z" fill="#FD8145"/>
<mask id="mask1_22_604" style="mask-type:luminance" maskUnits="userSpaceOnUse" x="189" y="170" width="102" height="104">
<path d="M272.353 180.056C268.569 178.04 259.608 173.526 254.698 170.297C253.081 175.441 248.334 187.261 238.839 187.261C230.084 187.261 227.513 178.578 226.799 173.717C223.892 176.453 218.965 179.08 214.579 181.597C208.756 184.944 200.492 184.433 197.095 190.097C193.698 195.76 193.939 205.291 193.939 205.291C193.939 205.291 192.133 208.255 189.768 212.24C199.58 211.72 206.108 220.494 206.108 220.494C206.108 220.494 210.7 244.416 209.444 250.882C208.189 257.348 205.316 263.504 205.316 266.386C205.316 269.268 207.501 271.283 210.906 272.049C214.312 272.815 225.965 273.873 233.98 273.344C241.995 272.815 264.828 271.283 265.8 267.927C266.772 264.571 268.225 241.397 268.225 241.397L266.772 221.05C278.975 212.496 287.507 218.487 290.302 221.05C290.904 212.304 290.216 202.81 288.384 196.827C285.228 186.494 277.212 182.628 272.353 180.056Z" fill="white"/>
</mask>
<g mask="url(#mask1_22_604)">
<path opacity="0.15" d="M288.384 196.791C285.228 186.494 277.204 182.627 272.353 180.056C267.503 177.484 254.139 170.78 251.713 167.944C249.288 165.108 248.54 151.2 248.54 146.567C248.54 141.934 248.058 146.312 243.44 149.914C238.822 153.516 230.084 160.995 230.084 160.995C230.175 162.455 230.175 163.921 230.084 165.381C232.845 166.649 236.5 168.117 238.538 168.117C242.09 168.117 243.156 170.753 244.558 173.389C245.96 176.024 243.492 179.034 243.492 179.034C243.492 179.034 254.852 179.791 258.757 180.913C262.661 182.035 272.955 183.549 279.345 189.203C284.393 193.653 287.885 201.852 290.181 207.151C289.933 203.639 289.331 200.166 288.384 196.791Z" fill="black"/>
<path opacity="0.15" d="M255.222 180.575C255.222 180.575 251.671 187.725 244.902 189.987C241.019 191.344 236.87 191.604 232.862 190.744C232.862 190.744 237.833 193.754 245.289 191.875C252.746 189.996 255.222 180.575 255.222 180.575Z" fill="black"/>
<path opacity="0.15" d="M265.164 215.952C265.164 215.952 265.516 228 261.259 231.009C257.002 234.019 243.509 236.654 238.186 235.15C232.862 233.645 227.866 225.738 222.921 227.243C217.976 228.747 209.427 238.542 209.427 238.542L209.78 245.318L225.045 237.411C225.045 237.411 235.365 243.795 246.7 251.712C258.034 259.628 247.413 261.506 247.413 261.506L233.215 267.152C233.215 267.152 242.443 263.385 249.555 263.385C256.667 263.385 252.04 264.89 252.04 264.89H265.525L265.809 267.881L268.389 249.459L267.675 227.243C267.675 227.243 266.944 212.185 265.164 215.952Z" fill="black"/>
</g>
<path d="M272.353 180.056C268.569 178.04 259.608 173.526 254.698 170.297C253.081 175.441 248.334 187.261 238.839 187.261C230.084 187.261 227.513 178.578 226.799 173.717C223.892 176.453 218.965 179.08 214.579 181.597C208.756 184.944 200.492 184.433 197.095 190.097C193.698 195.76 193.939 205.291 193.939 205.291C193.939 205.291 192.133 208.255 189.768 212.24C199.58 211.72 206.108 220.494 206.108 220.494C206.108 220.494 210.7 244.416 209.444 250.882C208.189 257.348 205.316 263.504 205.316 266.386C205.316 269.268 207.501 271.283 210.906 272.049C214.312 272.815 225.965 273.873 233.98 273.344C241.995 272.815 264.828 271.283 265.8 267.927C266.772 264.571 268.225 241.397 268.225 241.397L266.772 221.05C278.975 212.496 287.507 218.487 290.302 221.05C290.904 212.304 290.216 202.81 288.384 196.827C285.228 186.494 277.212 182.628 272.353 180.056Z" stroke="#263238" stroke-linecap="round" stroke-linejoin="round"/>
<path d="M206.047 220.494C206.047 220.494 202.289 208.246 203.88 201.807" stroke="#263238" stroke-linecap="round" stroke-linejoin="round"/>
<path d="M266.772 221.005C265.878 216.201 266.102 211.24 267.425 206.549" stroke="#263238" stroke-linecap="round" stroke-linejoin="round"/>
<path d="M210.906 272.004C210.906 272.004 222.723 270.18 230.686 268.183" stroke="#263238" stroke-linecap="round" stroke-linejoin="round"/>
<path d="M182.647 227.088C182.647 227.088 180.247 228.438 178.347 233.353C176.446 238.269 174.047 247.398 176.429 250.28C178.811 253.162 184.255 250.617 189.329 249.943C194.403 249.268 215.671 236.062 219.18 233.855C222.688 231.648 225.569 230.809 226.687 228.775C227.805 226.741 227.487 219.464 227.642 215.907C227.797 212.35 227.005 196.435 227.005 196.435C227.005 196.435 225.888 192.541 223.97 192.879C223.97 192.879 221.734 191.529 221.261 192.879L220.298 195.615C220.298 195.615 218.225 194.94 217.718 196.125C217.371 197.28 217.157 198.474 217.081 199.682C217.081 199.682 214.69 200.868 214.69 202.418C214.69 203.969 215.163 213.089 215.163 215.624C215.163 218.159 214.845 222.063 215.645 223.75C216.445 225.437 217.245 226.969 217.245 226.969C217.245 226.969 205.583 228.666 200.638 228.666C195.693 228.666 187.067 228.83 185.468 229.678" fill="white"/>
<mask id="mask2_22_604" style="mask-type:luminance" maskUnits="userSpaceOnUse" x="175" y="192" width="53" height="60">
<path d="M182.647 227.088C182.647 227.088 180.247 228.438 178.347 233.353C176.446 238.269 174.047 247.398 176.429 250.28C178.811 253.162 184.255 250.617 189.329 249.943C194.403 249.268 215.671 236.062 219.18 233.855C222.688 231.648 225.569 230.809 226.687 228.775C227.805 226.741 227.487 219.464 227.642 215.907C227.797 212.35 227.005 196.435 227.005 196.435C227.005 196.435 225.888 192.541 223.97 192.879C223.97 192.879 221.734 191.529 221.261 192.879L220.298 195.615C220.298 195.615 218.225 194.94 217.718 196.125C217.371 197.28 217.157 198.474 217.081 199.682C217.081 199.682 214.69 200.868 214.69 202.418C214.69 203.969 215.163 213.089 215.163 215.624C215.163 218.159 214.845 222.063 215.645 223.75C216.445 225.437 217.245 226.969 217.245 226.969C217.245 226.969 205.583 228.666 200.638 228.666C195.693 228.666 187.067 228.83 185.468 229.678" fill="white"/>
</mask>
<g mask="url(#mask2_22_604)">
<path d="M226.713 228.729C227.272 227.708 227.478 225.355 227.573 222.811L219.902 224.58C219.902 224.58 220.684 228.301 216.384 231.201C212.084 234.101 188.684 242.373 187.144 242.783C185.605 243.194 201.979 235.341 195.744 235.752C189.509 236.162 182.079 243.203 177.788 243.203C177.101 243.208 176.417 243.107 175.758 242.902C175.285 246.021 175.319 248.848 176.472 250.198C178.863 253.08 184.298 250.535 189.372 249.86C194.446 249.186 215.714 235.98 219.222 233.773C222.731 231.566 225.595 230.736 226.713 228.729Z" fill="#FD8145"/>
<path opacity="0.6" d="M226.713 228.729C227.272 227.708 227.478 225.355 227.573 222.811L219.902 224.58C219.902 224.58 220.684 228.301 216.384 231.201C212.084 234.101 188.684 242.373 187.144 242.783C185.605 243.194 201.979 235.341 195.744 235.752C189.509 236.162 182.079 243.203 177.788 243.203C177.101 243.208 176.417 243.107 175.758 242.902C175.285 246.021 175.319 248.848 176.472 250.198C178.863 253.08 184.298 250.535 189.372 249.86C194.446 249.186 215.714 235.98 219.222 233.773C222.731 231.566 225.595 230.736 226.713 228.729Z" fill="white"/>
</g>
<path d="M182.647 227.088C182.647 227.088 180.247 228.438 178.347 233.353C176.446 238.269 174.047 247.398 176.429 250.28C178.811 253.162 184.255 250.617 189.329 249.943C194.403 249.268 215.671 236.062 219.18 233.855C222.688 231.648 225.569 230.809 226.687 228.775C227.805 226.741 227.487 219.464 227.642 215.907C227.797 212.35 227.005 196.435 227.005 196.435C227.005 196.435 225.887 192.541 223.97 192.879C223.97 192.879 221.734 191.529 221.261 192.879L220.298 195.615C220.298 195.615 218.225 194.94 217.718 196.125C217.371 197.28 217.157 198.474 217.081 199.682C217.081 199.682 214.69 200.868 214.69 202.418C214.69 203.969 215.163 213.089 215.163 215.624C215.163 218.159 214.845 222.063 215.645 223.75C216.445 225.437 217.245 226.969 217.245 226.969C217.245 226.969 205.583 228.666 200.638 228.666C195.693 228.666 187.067 228.83 185.468 229.678" stroke="#263238" stroke-linecap="round" stroke-linejoin="round"/>
<path d="M279.723 235.296C272.061 230.052 256.091 234.11 250.982 233.773C245.874 233.435 231.667 225.136 231.667 225.136C231.667 225.136 234.539 222.09 234.694 220.229C234.849 218.369 234.694 213.289 234.694 210.407C234.694 207.525 235.494 204.652 235.657 202.454C235.82 200.257 233.077 201.77 232.621 202.454C232.165 203.138 231.022 209.896 231.022 209.896C231.022 209.896 229.585 205.336 229.585 204.826C229.585 204.315 229.267 198.05 228.467 195.505C227.668 192.961 225.758 195.505 225.758 195.505C225.595 193.982 225.113 192.769 223.995 192.769C222.877 192.769 221.923 197.01 221.923 197.01C221.923 194.465 221.123 194.639 220.323 195.478C219.523 196.317 219.532 201.916 219.532 201.916L218.569 200.393C217.451 200.056 216.849 201.916 216.849 203.613C216.849 205.309 217.485 210.38 217.485 214.611C217.439 216.769 217.6 218.927 217.967 221.05C218.667 224.014 219.855 226.824 221.476 229.349C224.193 233.581 233.292 238.825 238.882 243.394C244.472 247.963 260.915 255.588 269.059 256.946C277.204 258.305 282.819 261.506 284.703 257.795C286.586 254.083 290.129 235.779 288.375 229.687" fill="white"/>
<mask id="mask3_22_604" style="mask-type:luminance" maskUnits="userSpaceOnUse" x="216" y="192" width="73" height="68">
<path d="M279.723 235.296C272.061 230.052 256.091 234.11 250.982 233.773C245.874 233.435 231.667 225.136 231.667 225.136C231.667 225.136 234.539 222.09 234.694 220.229C234.849 218.369 234.694 213.289 234.694 210.407C234.694 207.525 235.494 204.652 235.657 202.454C235.82 200.257 233.077 201.77 232.621 202.454C232.165 203.138 231.022 209.896 231.022 209.896C231.022 209.896 229.585 205.336 229.585 204.826C229.585 204.315 229.267 198.05 228.467 195.505C227.668 192.961 225.758 195.505 225.758 195.505C225.595 193.982 225.113 192.769 223.995 192.769C222.877 192.769 221.923 197.01 221.923 197.01C221.923 194.465 221.123 194.639 220.323 195.478C219.523 196.317 219.532 201.916 219.532 201.916L218.569 200.393C217.451 200.056 216.849 201.916 216.849 203.613C216.849 205.309 217.485 210.38 217.485 214.611C217.439 216.769 217.6 218.927 217.967 221.05C218.667 224.014 219.855 226.824 221.476 229.349C224.193 233.581 233.292 238.825 238.882 243.394C244.472 247.963 260.915 255.588 269.059 256.946C277.204 258.305 282.819 261.506 284.703 257.795C286.586 254.083 290.129 235.779 288.375 229.687" fill="white"/>
</mask>
<g mask="url(#mask3_22_604)">
<path d="M269.025 257.01C277.169 258.36 282.785 261.57 284.669 257.858C286.027 255.223 288.169 245.327 288.702 237.594C287.077 241.014 282.587 249.979 279.724 250.59C276.172 251.338 260.907 246.823 259.127 246.449C257.346 246.075 281.487 245.318 272.62 243.057C263.753 240.795 257.002 242.3 245.96 238.916C234.918 235.533 225.974 233.079 221.407 229.413C224.125 233.645 233.223 238.889 238.813 243.458C244.403 248.027 260.881 255.651 269.025 257.01Z" fill="#FD8145"/>
<path opacity="0.6" d="M269.025 257.01C277.169 258.36 282.785 261.57 284.669 257.858C286.027 255.223 288.169 245.327 288.702 237.594C287.077 241.014 282.587 249.979 279.724 250.59C276.172 251.338 260.907 246.823 259.127 246.449C257.346 246.075 281.487 245.318 272.62 243.057C263.753 240.795 257.002 242.3 245.96 238.916C234.918 235.533 225.974 233.079 221.407 229.413C224.125 233.645 233.223 238.889 238.813 243.458C244.403 248.027 260.881 255.651 269.025 257.01Z" fill="white"/>
</g>
<path d="M279.723 235.296C272.061 230.052 256.091 234.11 250.982 233.773C245.874 233.435 231.667 225.136 231.667 225.136C231.667 225.136 234.539 222.09 234.694 220.229C234.849 218.369 234.694 213.289 234.694 210.407C234.694 207.525 235.494 204.652 235.657 202.454C235.82 200.257 233.077 201.77 232.621 202.454C232.165 203.138 231.022 209.896 231.022 209.896C231.022 209.896 229.585 205.336 229.585 204.826C229.585 204.315 229.267 198.05 228.467 195.505C227.668 192.961 225.758 195.505 225.758 195.505C225.595 193.982 225.113 192.769 223.995 192.769C222.877 192.769 221.923 197.01 221.923 197.01C221.923 194.465 221.123 194.639 220.323 195.478C219.523 196.317 219.532 201.916 219.532 201.916L218.569 200.393C217.451 200.056 216.849 201.916 216.849 203.613C216.849 205.309 217.485 210.38 217.485 214.611C217.439 216.769 217.6 218.927 217.967 221.05C218.667 224.014 219.855 226.824 221.476 229.349C224.193 233.581 233.292 238.825 238.882 243.394C244.472 247.963 260.915 255.588 269.059 256.946C277.204 258.305 282.819 261.506 284.703 257.795C286.586 254.083 290.129 235.779 288.375 229.687" stroke="#263238" stroke-linecap="round" stroke-linejoin="round"/>
<path d="M231.022 209.933C231.884 212.135 232.319 214.498 232.303 216.883" stroke="#263238" stroke-linecap="round" stroke-linejoin="round"/>
<path d="M225.759 195.542C226.241 197.712 226.56 199.92 226.713 202.144C226.713 204.351 227.031 209.44 227.031 209.44" stroke="#263238" stroke-linecap="round" stroke-linejoin="round"/>
<path d="M221.923 197.074C221.923 197.074 222.559 200.968 222.877 203.458C223.076 205.594 223.13 207.743 223.041 209.887" stroke="#263238" stroke-linecap="round" stroke-linejoin="round"/>
<path d="M219.532 201.98C219.532 201.98 220.005 205.027 220.323 206.385C220.559 208.18 220.668 209.991 220.65 211.803" stroke="#263238" stroke-linecap="round" stroke-linejoin="round"/>
<path d="M209.307 300.048C207.552 299.194 205.935 298.052 204.517 296.664C202.607 294.63 204.517 289.551 201.937 287.544C199.357 285.538 194.274 284.808 193.337 287.891C192.399 290.973 191.737 292.971 189.819 293.645C187.901 294.32 185.674 294.32 182.157 296.017C178.639 297.713 178.648 303.805 178.648 303.805C185.391 304.76 192.02 306.462 198.428 308.885C207.69 312.606 211.835 310.572 211.835 310.572C211.835 310.572 212.188 303.741 209.307 300.048Z" fill="white"/>
<mask id="mask4_22_604" style="mask-type:luminance" maskUnits="userSpaceOnUse" x="178" y="285" width="34" height="27">
<path d="M209.307 300.048C207.552 299.194 205.935 298.052 204.517 296.664C202.607 294.63 204.517 289.551 201.937 287.544C199.357 285.538 194.274 284.808 193.337 287.891C192.399 290.973 191.737 292.971 189.819 293.645C187.901 294.32 185.674 294.32 182.157 296.017C178.639 297.713 178.648 303.805 178.648 303.805C185.391 304.76 192.02 306.462 198.428 308.885C207.69 312.606 211.835 310.572 211.835 310.572C211.835 310.572 212.188 303.741 209.307 300.048Z" fill="white"/>
</mask>
<g mask="url(#mask4_22_604)">
<path d="M205.445 303.623C205.445 303.623 199.984 302.793 198.815 300.723C197.645 298.652 199.589 294.931 196.467 294.931C193.345 294.931 193.741 297.412 191.006 298.242C188.271 299.072 183.98 297.822 185.932 300.312C187.884 302.802 195.693 307.754 200.371 308.584C205.05 309.414 208.567 306.514 205.445 303.623Z" fill="#FD8145"/>
<path opacity="0.6" d="M205.445 303.623C205.445 303.623 199.984 302.793 198.815 300.723C197.645 298.652 199.589 294.931 196.467 294.931C193.345 294.931 193.741 297.412 191.006 298.242C188.271 299.072 183.98 297.822 185.932 300.312C187.884 302.802 195.693 307.754 200.371 308.584C205.05 309.414 208.567 306.514 205.445 303.623Z" fill="white"/>
</g>
<path d="M209.307 300.048C207.552 299.194 205.935 298.052 204.517 296.664C202.607 294.63 204.517 289.551 201.937 287.544C199.357 285.538 194.274 284.808 193.337 287.891C192.399 290.973 191.737 292.971 189.819 293.645C187.901 294.32 185.674 294.32 182.157 296.017C178.639 297.713 178.648 303.805 178.648 303.805C185.391 304.76 192.02 306.462 198.428 308.885C207.69 312.606 211.835 310.572 211.835 310.572C211.835 310.572 212.188 303.741 209.307 300.048Z" stroke="#263238" stroke-linecap="round" stroke-linejoin="round"/>
<path d="M233.06 310.016C237.916 308.69 242.678 307.001 247.31 304.963C253.416 302.337 259.591 299.756 265.482 296.628C274.426 291.885 277.616 284.772 275.38 275.971C273.144 267.17 269.317 260.394 253.02 263.44C236.723 266.486 231.563 276.883 224.64 284.772C216.083 294.485 209.031 299.482 205.798 298.999C202.108 298.452 201.326 305.766 206.434 308.484C214.69 312.861 224.107 312.351 233.06 310.016Z" fill="#263238" stroke="#263238" stroke-linecap="round" stroke-linejoin="round"/>
<path d="M208.567 298.652C208.567 298.652 216.367 297.002 224.563 287.07C232.759 277.138 233.92 275.479 233.92 275.479" stroke="white" stroke-linecap="round" stroke-linejoin="round"/>
<path d="M267.167 295.989C268.553 294.792 269.837 293.468 271.003 292.031" stroke="white" stroke-linecap="round" stroke-linejoin="round"/>
<path d="M241.737 309.414C241.737 309.414 253.829 305.711 263.478 298.89" stroke="white" stroke-linecap="round" stroke-linejoin="round"/>
<path d="M144.807 263.568C141.973 262.995 139.078 262.854 136.207 263.148C128.544 263.823 123.436 268.903 122.163 273.308C120.89 277.713 125.354 288.885 135.252 296.336C145.151 303.787 155.368 305.456 169.102 309.542C181.271 313.144 194.042 317.385 193.182 317.148C192.313 316.246 191.625 315.167 191.159 313.976C190.693 312.785 190.46 311.506 190.473 310.217C190.653 307.097 192.631 304.662 194.283 303.149C191.703 301.89 187.463 299.045 180.892 292.606C170.314 282.264 159.513 271.913 153.175 267.152" fill="#263238"/>
<path d="M144.807 263.568C141.973 262.995 139.078 262.854 136.207 263.148C128.544 263.823 123.436 268.903 122.163 273.308C120.89 277.713 125.354 288.885 135.252 296.336C145.151 303.787 155.368 305.456 169.102 309.542C181.271 313.144 194.042 317.385 193.182 317.148C192.313 316.246 191.625 315.167 191.159 313.976C190.693 312.785 190.46 311.506 190.473 310.217C190.653 307.097 192.631 304.662 194.283 303.149C191.703 301.89 187.463 299.045 180.892 292.606C170.314 282.264 159.513 271.913 153.175 267.152" stroke="#263238" stroke-linecap="round" stroke-linejoin="round"/>
<path d="M149.769 267.763C147.997 266.851 146.914 266.377 146.914 266.377" stroke="white" stroke-linecap="round" stroke-linejoin="round"/>
<path d="M182.81 292.861C182.81 292.861 166.032 278.789 159.401 273.828C157.301 272.256 155.122 270.807 152.874 269.487" stroke="white" stroke-linecap="round" stroke-linejoin="round"/>
<path d="M232.621 308.484C228.467 307.462 228.149 308.484 218.251 308.137C208.352 307.791 197.499 304.079 197.499 304.079C197.499 304.079 196.57 304.225 194.282 303.103C192.631 304.617 190.653 307.052 190.473 310.171C190.46 311.46 190.693 312.739 191.159 313.93C191.625 315.121 192.313 316.2 193.182 317.102C194.902 317.586 196.561 318.014 198.135 318.297C205.161 319.656 213.779 323.039 218.251 325.073C221.856 326.843 225.776 327.776 229.749 327.809C233.258 327.809 231.89 328.365 234.453 327.681C237.016 326.997 236.13 325.1 236.13 325.1C237.222 325.042 238.299 324.814 239.329 324.426C241.238 323.742 240.602 321.033 240.602 321.033C241.856 321.081 243.107 320.867 244.283 320.404C246.235 319.318 246.235 317.038 245.392 314.932C244.119 311.74 236.775 309.496 232.621 308.484Z" fill="white"/>
<mask id="mask5_22_604" style="mask-type:luminance" maskUnits="userSpaceOnUse" x="190" y="303" width="56" height="26">
<path d="M232.621 308.484C228.467 307.462 228.149 308.484 218.251 308.137C208.352 307.791 197.499 304.079 197.499 304.079C197.499 304.079 196.57 304.225 194.282 303.103C192.631 304.617 190.653 307.052 190.473 310.171C190.46 311.46 190.693 312.739 191.159 313.93C191.625 315.121 192.313 316.2 193.182 317.102C194.902 317.586 196.561 318.014 198.135 318.297C205.161 319.656 213.779 323.039 218.251 325.073C221.856 326.843 225.776 327.776 229.749 327.809C233.258 327.809 231.89 328.365 234.453 327.681C237.016 326.997 236.13 325.1 236.13 325.1C237.222 325.042 238.299 324.814 239.329 324.426C241.238 323.742 240.602 321.033 240.602 321.033C241.856 321.081 243.107 320.867 244.283 320.404C246.235 319.318 246.235 317.038 245.392 314.932C244.119 311.74 236.775 309.496 232.621 308.484Z" fill="white"/>
</mask>
<g mask="url(#mask5_22_604)">
<path d="M234.453 327.654C236.044 327.235 236.302 326.332 236.276 325.712C235.371 325.862 234.457 325.947 233.541 325.967C228.467 325.967 222.619 321.407 212.858 319.756C207.518 318.844 199.021 317.33 192.425 316.108C192.674 316.455 192.924 316.783 193.182 317.084C194.902 317.567 196.561 317.996 198.135 318.279C205.161 319.638 213.779 323.021 218.251 325.055C221.856 326.825 225.776 327.758 229.749 327.791C233.258 327.782 231.89 328.32 234.453 327.654Z" fill="#FD8145"/>
<path opacity="0.6" d="M234.453 327.654C236.044 327.235 236.302 326.332 236.276 325.712C235.371 325.862 234.457 325.947 233.541 325.967C228.467 325.967 222.619 321.407 212.858 319.756C207.518 318.844 199.021 317.33 192.425 316.108C192.674 316.455 192.924 316.783 193.182 317.084C194.902 317.567 196.561 317.996 198.135 318.279C205.161 319.638 213.779 323.021 218.251 325.055C221.856 326.825 225.776 327.758 229.749 327.791C233.258 327.782 231.89 328.32 234.453 327.654Z" fill="white"/>
</g>
<path d="M232.621 308.484C228.467 307.462 228.149 308.484 218.251 308.137C208.352 307.791 197.499 304.079 197.499 304.079C197.499 304.079 196.57 304.225 194.282 303.103C192.631 304.617 190.653 307.052 190.473 310.171C190.46 311.46 190.693 312.739 191.159 313.93C191.625 315.121 192.313 316.2 193.182 317.102C194.902 317.586 196.561 318.014 198.135 318.297C205.161 319.656 213.779 323.039 218.251 325.073C221.856 326.843 225.776 327.776 229.749 327.809C233.258 327.809 231.89 328.365 234.453 327.681C237.016 326.997 236.13 325.1 236.13 325.1C237.222 325.042 238.299 324.814 239.329 324.426C241.238 323.742 240.602 321.033 240.602 321.033C241.856 321.081 243.107 320.867 244.283 320.404C246.235 319.318 246.235 317.038 245.392 314.932C244.119 311.74 236.775 309.496 232.621 308.484Z" stroke="#263238" stroke-linecap="round" stroke-linejoin="round"/>
<path d="M240.602 321.024C239.134 319.635 237.514 318.438 235.778 317.458" stroke="#263238" stroke-linecap="round" stroke-linejoin="round"/>
<path d="M236.13 325.073C236.13 325.073 233.258 323.039 232.621 321.689" stroke="#263238" stroke-linecap="round" stroke-linejoin="round"/>
<path d="M231.667 327.408C230.446 326.72 229.438 325.676 228.76 324.398" stroke="#263238" stroke-linecap="round" stroke-linejoin="round"/>
<path d="M227.831 327.782C226.336 327.474 224.984 326.638 223.996 325.41" stroke="#263238" stroke-linecap="round" stroke-linejoin="round"/>
<path d="M224.503 113.088C224.503 113.088 218.431 119.007 218.921 125.445C219.412 131.884 217.459 135.477 218.19 140.129C218.921 144.78 219.91 153.809 221.63 156.098C223.35 158.387 223.574 160.995 225.277 162.281C226.98 163.567 232.81 163.567 234.023 161.506C235.236 159.445 248.11 151.474 249.082 148.628C250.053 145.783 249.813 145.026 249.813 145.026C249.813 145.026 258.309 139.618 257.097 134.994C255.884 130.37 252.479 128.555 250.535 130.106C248.591 131.656 248.351 132.422 248.351 132.422C248.351 132.422 243.268 128.875 244.24 125.527C245.212 122.18 248.247 121.031 247.276 117.164C246.304 113.298 239.037 115.231 231.305 115.86C225.208 116.335 227.212 110.717 224.503 113.088Z" fill="white"/>
<mask id="mask6_22_604" style="mask-type:luminance" maskUnits="userSpaceOnUse" x="218" y="112" width="40" height="52">
<path d="M224.503 113.088C224.503 113.088 218.431 119.007 218.921 125.445C219.412 131.884 217.459 135.477 218.19 140.129C218.921 144.78 219.91 153.809 221.63 156.098C223.35 158.387 223.574 160.995 225.277 162.281C226.98 163.567 232.81 163.567 234.023 161.506C235.236 159.445 248.11 151.474 249.082 148.628C250.053 145.783 249.813 145.026 249.813 145.026C249.813 145.026 258.309 139.618 257.097 134.994C255.884 130.37 252.479 128.555 250.535 130.106C248.591 131.656 248.351 132.422 248.351 132.422C248.351 132.422 243.268 128.875 244.24 125.527C245.212 122.18 248.247 121.031 247.276 117.164C246.304 113.298 239.037 115.231 231.305 115.86C225.208 116.335 227.212 110.717 224.503 113.088Z" fill="white"/>
</mask>
<g mask="url(#mask6_22_604)">
<path d="M257.054 134.976C255.841 130.343 252.436 128.537 250.492 130.088C248.548 131.638 248.308 132.404 248.308 132.404C248.308 132.404 243.225 128.856 244.197 125.509C245.169 122.162 248.204 121.013 247.233 117.146C246.261 113.279 241.471 109.102 233.739 109.732C231.959 109.878 230.669 110.024 229.663 110.215C232.888 109.942 238.461 109.96 241.376 112.787C245.676 116.927 241.737 121.068 240.671 125.218C239.604 129.367 242.09 135.003 241.376 139.144C240.662 143.284 237.119 146.294 237.119 151.565C237.119 156.837 237.472 158.724 232.819 162.108L231.907 162.801C232.71 162.64 233.433 162.181 233.946 161.506C235.158 159.445 248.032 151.474 249.004 148.629C249.976 145.783 249.735 145.026 249.735 145.026C249.735 145.026 258.266 139.618 257.054 134.976Z" fill="#FD8145"/>
<path opacity="0.6" d="M257.054 134.976C255.841 130.343 252.436 128.537 250.492 130.088C248.548 131.638 248.308 132.404 248.308 132.404C248.308 132.404 243.225 128.856 244.197 125.509C245.169 122.162 248.204 121.013 247.233 117.146C246.261 113.279 241.471 109.102 233.739 109.732C231.959 109.878 230.669 110.024 229.663 110.215C232.888 109.942 238.461 109.96 241.376 112.787C245.676 116.927 241.737 121.068 240.671 125.218C239.604 129.367 242.09 135.003 241.376 139.144C240.662 143.284 237.119 146.294 237.119 151.565C237.119 156.837 237.472 158.724 232.819 162.108L231.907 162.801C232.71 162.64 233.433 162.181 233.946 161.506C235.158 159.445 248.032 151.474 249.004 148.629C249.976 145.783 249.735 145.026 249.735 145.026C249.735 145.026 258.266 139.618 257.054 134.976Z" fill="white"/>
</g>
<path d="M224.503 113.088C224.503 113.088 218.431 119.007 218.921 125.445C219.412 131.884 217.459 135.477 218.19 140.129C218.921 144.78 219.91 153.809 221.63 156.098C223.35 158.387 223.574 160.995 225.277 162.281C226.98 163.567 232.81 163.567 234.023 161.506C235.236 159.445 248.11 151.474 249.082 148.628C250.053 145.783 249.813 145.026 249.813 145.026C249.813 145.026 258.309 139.618 257.097 134.994C255.884 130.37 252.479 128.555 250.535 130.106C248.591 131.656 248.351 132.422 248.351 132.422C248.351 132.422 243.268 128.875 244.24 125.527C245.212 122.18 248.247 121.031 247.276 117.164C246.304 113.298 239.037 115.231 231.305 115.86C225.208 116.335 227.212 110.717 224.503 113.088Z" stroke="#263238" stroke-linecap="round" stroke-linejoin="round"/>
<path d="M230.48 135.769C230.48 135.769 233.137 139.627 237.498 135.769" stroke="#263238" stroke-linecap="round" stroke-linejoin="round"/>
<path d="M219.644 135.231C219.868 135.542 220.152 135.799 220.477 135.984C220.803 136.169 221.162 136.278 221.531 136.303C221.899 136.328 222.268 136.269 222.613 136.13C222.959 135.99 223.271 135.774 223.531 135.495" stroke="#263238" stroke-linecap="round" stroke-linejoin="round"/>
<path d="M228.39 146.832C226.446 147.351 223.78 146.576 223.531 145.801C223.282 145.026 224.752 134.976 224.752 134.976L223.032 131.884C223.032 131.884 221.57 129.567 219.592 131.118" stroke="#263238" stroke-linecap="round" stroke-linejoin="round"/>
<path d="M224.021 151.465L229.766 151.438" stroke="#263238" stroke-linecap="round" stroke-linejoin="round"/>
<path d="M239.08 131.629C237.457 130.524 235.577 129.915 233.649 129.87C231.72 129.825 229.817 130.345 228.149 131.373" stroke="#263238" stroke-linecap="round" stroke-linejoin="round"/>
<path d="M255.171 135.888C255.171 135.888 254.156 133.097 252.126 133.954C250.097 134.811 249.692 137.602 249.692 137.602C249.692 137.602 251.318 136.955 251.318 139.107C251.318 141.259 249.495 140.393 249.495 140.393" stroke="#263238" stroke-linecap="round" stroke-linejoin="round"/>
</svg>
