<?xml version="1.0" encoding="iso-8859-1"?>
<!-- Uploaded to: SVG Repo, www.svgrepo.com, Generator: SVG Repo Mixer Tools -->
<svg fill="#1C274C"  width="30px" height="30px" version="1.1" id="Layer_1" xmlns="http://www.w3.org/2000/svg" xmlns:xlink="http://www.w3.org/1999/xlink" 
	 viewBox="0 0 512 512" xml:space="preserve">
<g>
	<g>
		<path d="M488.727,0H23.273C10.42,0,0,10.42,0,23.273v372.705c0,12.853,10.42,23.273,23.273,23.273h209.436v46.204h-77.566
			c-12.853,0-23.273,10.42-23.273,23.273c0,12.853,10.42,23.273,23.273,23.273h201.7c12.853,0,23.273-10.42,23.273-23.273
			c0-12.853-10.42-23.273-23.273-23.273h-77.588V419.25h209.473c12.853,0,23.273-10.42,23.273-23.273V23.273
			C512,10.42,501.58,0,488.727,0z M465.455,372.705H46.545V326.16h418.909V372.705z M465.455,279.614H46.545V46.545h418.909V279.614
			z"/>
	</g>
</g>
<g>
	<g>
		<path d="M302.545,186.183H265.64l53.361-53.363c6.656-6.656,8.647-16.665,5.046-25.363c-3.603-8.698-12.088-14.367-21.501-14.367
			h-93.091c-12.853,0-23.273,10.42-23.273,23.273s10.42,23.273,23.273,23.273h36.906l-53.361,53.363
			c-6.656,6.656-8.647,16.665-5.046,25.363c3.603,8.696,12.088,14.367,21.501,14.367h93.091c12.853,0,23.273-10.42,23.273-23.273
			C325.818,196.603,315.398,186.183,302.545,186.183z"/>
	</g>
</g>
</svg>